<svg width="56" height="83" viewBox="0 0 56 83" fill="none" xmlns="http://www.w3.org/2000/svg">
<g clip-path="url(#clip0_12_53)">
<path d="M27.6667 41.5C27.6667 37.8311 29.1242 34.3126 31.7184 31.7183C34.3127 29.1241 37.8313 27.6666 41.5001 27.6666C45.1689 27.6666 48.6875 29.1241 51.2817 31.7183C53.876 34.3126 55.3334 37.8311 55.3334 41.5C55.3334 45.1688 53.876 48.6873 51.2817 51.2816C48.6875 53.8759 45.1689 55.3333 41.5001 55.3333C37.8313 55.3333 34.3127 53.8759 31.7184 51.2816C29.1242 48.6873 27.6667 45.1688 27.6667 41.5Z" fill="#1ABCFE"/>
<path d="M0 69.1667C0 65.4979 1.45744 61.9793 4.05169 59.3851C6.64594 56.7908 10.1645 55.3334 13.8333 55.3334H27.6667V69.1667C27.6667 72.8355 26.2092 76.3541 23.615 78.9484C21.0207 81.5426 17.5022 83 13.8333 83C10.1645 83 6.64594 81.5426 4.05169 78.9484C1.45744 76.3541 0 72.8355 0 69.1667H0Z" fill="#0ACF83"/>
<path d="M27.6667 0V27.6667H41.5001C45.1689 27.6667 48.6875 26.2092 51.2817 23.615C53.876 21.0207 55.3334 17.5022 55.3334 13.8333C55.3334 10.1645 53.876 6.64594 51.2817 4.05169C48.6875 1.45744 45.1689 0 41.5001 0L27.6667 0Z" fill="#FF7262"/>
<path d="M0 13.8333C0 17.5022 1.45744 21.0207 4.05169 23.615C6.64594 26.2092 10.1645 27.6667 13.8333 27.6667H27.6667V0H13.8333C10.1645 0 6.64594 1.45744 4.05169 4.05169C1.45744 6.64594 0 10.1645 0 13.8333H0Z" fill="#F24E1E"/>
<path d="M0 41.5C0 45.1688 1.45744 48.6873 4.05169 51.2816C6.64594 53.8759 10.1645 55.3333 13.8333 55.3333H27.6667V27.6666H13.8333C10.1645 27.6666 6.64594 29.1241 4.05169 31.7183C1.45744 34.3126 0 37.8311 0 41.5Z" fill="#A259FF"/>
</g>
<defs>
<clipPath id="clip0_12_53">
<rect width="55.3333" height="83" fill="white"/>
</clipPath>
</defs>
</svg>
